<svg width="20" height="23" viewBox="0 0 20 23" fill="none" xmlns="http://www.w3.org/2000/svg">
<path d="M19.0541 5.93279C17.8245 5.93279 16.69 5.52544 15.7789 4.83824C14.734 4.05048 13.9833 2.89491 13.7182 1.56303C13.6525 1.23395 13.6172 0.894347 13.6138 0.546331H10.1013V10.1443L10.097 15.4016C10.097 16.8071 9.18177 17.9989 7.91301 18.418C7.54479 18.5396 7.14712 18.5973 6.73303 18.5746C6.20449 18.5455 5.70919 18.386 5.27869 18.1285C4.36257 17.5806 3.74144 16.5866 3.72461 15.4496C3.6981 13.6725 5.13477 12.2236 6.91062 12.2236C7.26116 12.2236 7.59781 12.2808 7.91301 12.3848V9.76138V8.81833C7.58056 8.7691 7.24222 8.74343 6.9001 8.74343C4.95634 8.74343 3.13841 9.5514 1.83893 11.007C0.856741 12.107 0.267597 13.5104 0.1767 14.982C0.0576089 16.9153 0.765003 18.753 2.13687 20.1089C2.33844 20.3079 2.55011 20.4926 2.77146 20.6631C3.94764 21.5682 5.38558 22.0589 6.9001 22.0589C7.24222 22.0589 7.58056 22.0337 7.91301 21.9844C9.32779 21.7749 10.6332 21.1272 11.6633 20.1089C12.9291 18.8578 13.6285 17.1968 13.6361 15.4289L13.618 7.57819C14.2219 8.04403 14.8822 8.4295 15.5908 8.7287C16.6929 9.1937 17.8615 9.42936 19.0642 9.42894V6.87837V5.93195C19.0651 5.93279 19.055 5.93279 19.0541 5.93279V5.93279Z" fill="#36BA5F"/>
</svg>
